<svg width="74" height="56" viewBox="0 0 74 56" fill="none" xmlns="http://www.w3.org/2000/svg">
<path d="M22.5 42.0371V14.466L47.0089 1.13353L72.4842 14.4767V42.0266L47.0087 54.8756L22.5 42.0371Z" fill="#2969BD" stroke="white" stroke-width="2" stroke-linejoin="round"/>
<path d="M47.5329 53L70.9797 41.4967C70.9797 32.902 72.0455 27.5098 58.7234 21.6275C57.1248 21.6275 50.1973 26.0392 47.5329 28.4902V53Z" fill="#052A65"/>
<path d="M47 3L70.9797 15.2549C68.8482 16.7255 59.1693 21.3175 58.7234 21C56.6167 19.5 49.6833 18.2996 47 18.7996V3Z" fill="#052A65"/>
<path d="M47.5329 53L70.9797 41.4967C70.9797 32.902 72.0455 27.5098 58.7234 21.6275C57.1248 21.6275 50.1973 26.0392 47.5329 28.4902V53Z" stroke="#052A65" stroke-linecap="round" stroke-linejoin="round"/>
<path d="M47 3L70.9797 15.2549C68.8482 16.7255 59.1693 21.3175 58.7234 21C56.6167 19.5 49.6833 18.2996 47 18.7996V3Z" stroke="#052A65" stroke-linecap="round" stroke-linejoin="round"/>
<path d="M22.9146 36.9581L20.2471 38.4994L13.8451 34.903V30.7929C13.8451 30.7929 1.51482 23.7046 1.03036 23.4535C0.545898 23.2025 6.02825 21.9536 6.02825 21.9536" stroke="white" stroke-width="2" stroke-linecap="round"/>
<path d="M1.71885 22.7883L6.61137 20.3495C6.64067 20.3349 6.67527 20.3355 6.70399 20.3513L20.0996 27.6825C20.1662 27.719 20.1695 27.8134 20.1056 27.8544L15.497 30.8131C15.4656 30.8333 15.4255 30.8343 15.3932 30.8157L1.71368 22.9646C1.64444 22.9248 1.64739 22.824 1.71885 22.7883Z" fill="#F1C01C" stroke="#F1C01C" stroke-opacity="0.9"/>
<path d="M65 45.5C68.201 30.0871 44.456 9.43694 26.5303 32.4535V28.4535L20.2471 25.7084C48.5227 6.18543 68.1675 29.0734 65.5 45L65 45.5Z" fill="white"/>
<path d="M65 45.5L64.5104 45.3984L64.1701 47.0371L65.3536 45.8536L65 45.5ZM26.5303 32.4535H26.0303V33.9092L26.9248 32.7607L26.5303 32.4535ZM65.5 45L65.8536 45.3535C65.9272 45.28 65.9759 45.1852 65.9931 45.0826L65.5 45ZM20.2471 25.7084L19.963 25.2969L19.2241 25.8071L20.0469 26.1666L20.2471 25.7084ZM26.5303 28.4535H27.0303V28.1263L26.7304 27.9953L26.5303 28.4535ZM65.4896 45.6017C67.1458 37.6268 61.8453 28.4154 53.9258 24.1261C49.9457 21.9704 45.274 21.0367 40.4436 22.1267C35.6123 23.217 30.6733 26.32 26.1358 32.1462L26.9248 32.7607C31.3501 27.0786 36.1014 24.1318 40.6638 23.1022C45.2272 22.0724 49.6527 22.949 53.4495 25.0054C61.0837 29.1402 66.0552 37.9604 64.5104 45.3984L65.4896 45.6017ZM65.3536 45.8536L65.8536 45.3535L65.1464 44.6465L64.6464 45.1465L65.3536 45.8536ZM65.9931 45.0826C67.3628 36.9051 63.013 27.012 54.7497 21.6414C46.4372 16.2388 34.2357 15.4423 19.963 25.2969L20.5312 26.1198C34.5341 16.4515 46.2928 17.3375 54.2047 22.4798C62.1659 27.6541 66.3047 37.1683 65.0069 44.9174L65.9931 45.0826ZM20.0469 26.1666L26.3301 28.9116L26.7304 27.9953L20.4472 25.2502L20.0469 26.1666ZM26.0303 28.4535V32.4535H27.0303V28.4535H26.0303Z" fill="white"/>
<path fill-rule="evenodd" clip-rule="evenodd" d="M20.2471 25.1947L14.9121 28.2772V34.4424L20.2471 37.525V31.3598L25.5822 28.2772L20.2471 25.1947Z" fill="#194E95"/>
<path d="M20.2471 37.525L25.5822 34.4424V28.2772L20.2471 31.3598V37.525Z" fill="#073378"/>
<path d="M20.2471 37.525L14.9121 34.4424V28.2772L20.2471 25.1947L25.5822 28.2772M20.2471 37.525L25.5822 34.4424V28.2772M20.2471 37.525V31.3598L25.5822 28.2772" stroke="#052A65"/>
<path d="M21.4516 35.3813L26.0637 32.4203C26.0952 32.4 26.1354 32.3991 26.1678 32.4178L39.3105 40.0117C39.3753 40.0491 39.3775 40.1419 39.3145 40.1824L34.7023 43.1434C34.6708 43.1636 34.6307 43.1646 34.5983 43.1458L21.4556 35.552C21.3907 35.5145 21.3885 35.4217 21.4516 35.3813Z" fill="#F1C01C" stroke="#F1C01C" stroke-opacity="0.9"/>
</svg>
