<svg width="175" height="191" viewBox="0 0 175 191" fill="none" xmlns="http://www.w3.org/2000/svg">
<mask id="mask0_127_290" style="mask-type:luminance" maskUnits="userSpaceOnUse" x="0" y="0" width="175" height="191">
<path d="M0 0H174.815V190.442H0V0Z" fill="white"/>
</mask>
<g mask="url(#mask0_127_290)">
<path fill-rule="evenodd" clip-rule="evenodd" d="M87.0232 0.448975C86.37 0.448975 85.7745 0.63437 85.2366 1.00517L1.19103 58.2343C0.605116 58.6344 0.201695 59.1711 -0.0384342 59.8444C-0.278566 60.5176 -0.288172 61.2007 -0.0864602 61.8935C0.115249 62.5765 0.499457 63.1327 1.06617 63.5718C1.63287 64.0012 2.26682 64.2158 2.968 64.2158H11.0076V76.0715C11.0076 76.5106 11.094 76.9204 11.2573 77.3205C11.4206 77.7206 11.6511 78.0816 11.9585 78.3841C12.2562 78.6866 12.602 78.9208 12.9958 79.0866C13.3897 79.2525 13.8027 79.3306 14.2253 79.3306H17.5295V134.481H14.2253C13.8027 134.481 13.3897 134.569 12.9958 134.735C12.602 134.901 12.2466 135.135 11.9489 135.447C11.6415 135.75 11.411 136.111 11.2477 136.511C11.0844 136.911 11.0076 137.331 11.0076 137.77V149.606H9.65322C9.23059 149.596 8.81757 149.684 8.42376 149.85C8.02994 150.006 7.68416 150.25 7.38639 150.552C7.07903 150.855 6.8485 151.206 6.68521 151.606C6.51232 152.006 6.43548 152.426 6.43548 152.855V166.623H2.91997C2.49734 166.623 2.08432 166.711 1.70011 166.877C1.3063 167.043 0.960508 167.277 0.662746 167.58C0.355379 167.892 0.124854 168.243 -0.0384342 168.643C-0.201725 169.034 -0.278564 169.453 -0.278564 169.882V186.91C-0.278564 187.339 -0.201725 187.759 -0.0384342 188.159C0.124854 188.559 0.355379 188.91 0.653141 189.222C0.950901 189.535 1.29669 189.769 1.6905 189.935C2.08432 190.1 2.49734 190.188 2.91997 190.188H170.656C171.088 190.188 171.491 190.1 171.885 189.935C172.279 189.769 172.625 189.535 172.923 189.222C173.23 188.91 173.46 188.559 173.624 188.159C173.777 187.759 173.864 187.339 173.854 186.91V169.882C173.854 169.453 173.777 169.034 173.614 168.643C173.451 168.243 173.22 167.892 172.923 167.58C172.625 167.277 172.279 167.043 171.885 166.877C171.491 166.711 171.088 166.623 170.656 166.623H167.15V152.855C167.15 152.426 167.063 152.016 166.9 151.616C166.737 151.216 166.506 150.865 166.209 150.562C165.911 150.25 165.565 150.016 165.171 149.85C164.777 149.684 164.374 149.606 163.951 149.606H163.029V137.77C163.029 137.34 162.943 136.921 162.789 136.511C162.626 136.111 162.395 135.76 162.088 135.447C161.79 135.145 161.444 134.901 161.051 134.735C160.657 134.569 160.244 134.491 159.821 134.481H156.498V79.3306H159.821C160.244 79.3306 160.657 79.2525 161.041 79.0866C161.435 78.9208 161.781 78.6866 162.078 78.3743C162.386 78.0718 162.616 77.7206 162.779 77.3205C162.943 76.9204 163.02 76.5106 163.029 76.0715V64.2158H171.059C171.77 64.2158 172.404 64.0012 172.98 63.5816C173.547 63.1522 173.931 62.596 174.142 61.9032C174.344 61.2104 174.335 60.5274 174.094 59.8541C173.864 59.1711 173.451 58.6344 172.865 58.2343L88.8194 1.00517C88.2719 0.63437 87.6764 0.448975 87.0232 0.448975ZM87.0136 7.66971L160.484 57.6781H13.5625L87.0136 7.66971ZM86.6774 22.2575C79.5984 22.4429 73.8545 28.4049 73.8545 35.6549C73.8545 43.022 79.7713 49.0523 87.0136 49.0523C94.2463 49.0523 100.202 43.022 100.202 35.6549C100.202 28.2878 94.2463 22.2575 87.0136 22.2575C86.8983 22.2575 86.7927 22.2575 86.6774 22.2575ZM87.0136 28.7952C90.7788 28.7952 93.7757 31.8299 93.7757 35.6549C93.7757 39.4799 90.7788 42.5146 87.0136 42.5146C83.2387 42.5146 80.2803 39.4799 80.2803 35.6549C80.2803 31.8299 83.2387 28.7952 87.0136 28.7952ZM17.4334 64.2158H39.4294V72.7929H17.4334V64.2158ZM45.8553 64.2158H69.609V76.0715C69.609 76.5106 69.6954 76.9204 69.8587 77.3205C70.022 77.7206 70.2525 78.0718 70.5503 78.3743C70.8576 78.6866 71.2034 78.9208 71.5876 79.0866C71.9814 79.2525 72.3945 79.3306 72.8171 79.3306H76.1309V134.481H72.8171C72.3945 134.491 71.9814 134.569 71.5876 134.735C71.1938 134.901 70.848 135.145 70.5407 135.447C70.2429 135.76 70.0124 136.111 69.8491 136.511C69.6858 136.921 69.609 137.34 69.609 137.77V149.606H45.8553V137.77C45.8553 137.34 45.7784 136.921 45.6151 136.521C45.4518 136.121 45.2213 135.76 44.9236 135.457C44.6258 135.145 44.28 134.911 43.8862 134.745C43.4924 134.569 43.0794 134.491 42.6567 134.481H39.3429V79.3306H42.6567C43.0794 79.3306 43.4924 79.2428 43.8766 79.0769C44.2704 78.911 44.6162 78.6768 44.914 78.3743C45.2117 78.0718 45.4422 77.7206 45.6055 77.3205C45.7688 76.9204 45.8553 76.5106 45.8553 76.0715V64.2158ZM76.0156 64.2158H98.0116V72.7929H76.0156V64.2158ZM104.437 64.2158H128.201V76.0715C128.201 76.5106 128.287 76.9204 128.45 77.3205C128.604 77.7206 128.844 78.0718 129.142 78.3743C129.44 78.6768 129.786 78.911 130.179 79.0769C130.564 79.2428 130.977 79.3306 131.399 79.3306H134.713V134.481H131.399C130.977 134.491 130.564 134.569 130.17 134.745C129.776 134.911 129.43 135.145 129.132 135.457C128.835 135.76 128.604 136.121 128.441 136.521C128.278 136.921 128.201 137.34 128.201 137.77V149.606H104.437V137.77C104.437 137.34 104.361 136.921 104.197 136.521C104.034 136.121 103.804 135.76 103.506 135.457C103.208 135.145 102.862 134.911 102.468 134.745C102.075 134.569 101.662 134.491 101.239 134.481H97.9155V79.3306H101.239C101.662 79.3306 102.065 79.2428 102.459 79.0769C102.853 78.911 103.198 78.6768 103.496 78.3743C103.794 78.0718 104.024 77.7206 104.188 77.3205C104.351 76.9204 104.437 76.5106 104.437 76.0715V64.2158ZM134.627 64.2158H156.594V72.7929H134.627V64.2158ZM23.9554 79.3306H32.917V134.481H23.9554V79.3306ZM82.5568 79.3306H91.4992V134.481H82.5568V79.3306ZM141.139 79.3306H150.081V134.481H141.139V79.3306ZM17.4334 141.029H39.4294V149.606H17.4334V141.029ZM76.0156 141.029H98.0116V149.606H76.0156V141.029ZM134.627 141.029H156.594V149.606H134.627V141.029ZM12.8518 156.144H160.724V166.623H12.8518V156.144ZM6.14732 173.171H167.438V183.651H6.14732V173.171Z" fill="#2969BD"/>
</g>
</svg>
