<svg width="266" height="294" viewBox="0 0 266 294" fill="none" xmlns="http://www.w3.org/2000/svg">
<path d="M186.526 184.75L167.927 178.713C166.417 172.677 163.906 167.141 160.885 161.609L169.938 144C170.943 142.49 170.438 140.979 169.432 139.474L153.849 124.38C152.844 123.375 150.833 122.87 149.323 123.875L131.724 132.932C126.198 129.911 120.667 127.396 115.135 125.891L109.104 106.771C108.599 105.26 107.089 104.255 105.583 104.255H83.4583C81.9531 104.255 80.4427 105.26 79.9427 106.771L73.9062 125.891C67.875 127.396 62.3438 129.911 57.3177 132.932L39.7188 123.875C38.2083 122.87 36.7031 123.375 35.1927 124.38L19.6094 139.974C18.6042 140.979 18.099 142.995 19.1042 144.505L28.1562 162.109C25.1406 167.646 22.625 173.182 21.1146 179.219L2.51562 184.75C1.00521 185.255 0 186.766 0 188.271V210.411C0 211.917 1.00521 213.427 2.51562 213.932L21.1146 219.969C22.625 226.005 25.1406 231.542 28.1562 237.073L19.1042 254.177C18.099 255.687 18.6042 257.198 19.6094 258.708L35.1927 274.302C36.1979 275.307 38.2083 275.812 39.7188 274.807L56.8125 265.75C62.3438 268.771 67.875 271.286 73.9062 272.792L79.9427 291.406C80.4427 292.917 81.9531 293.922 83.4583 293.922H105.583C107.089 293.922 108.599 292.917 109.104 291.406L115.135 272.792C121.167 271.286 126.698 268.771 132.229 265.75L149.323 274.807C150.833 275.812 152.339 275.307 153.849 274.302L169.432 258.708C170.438 257.698 170.943 255.687 169.938 254.177L160.885 237.073C163.906 231.542 166.417 226.005 167.927 219.969L186.526 213.932C188.036 213.427 189.042 211.917 189.042 210.411V188.271C189.042 186.766 188.036 185.255 186.526 184.75ZM181.5 207.391L163.401 212.922C162.396 213.427 161.391 214.432 160.885 215.437C159.38 221.979 156.365 228.521 153.344 234.557C152.844 235.562 152.844 237.073 153.344 238.078L161.891 254.682L150.328 266.255L133.74 257.698C132.734 257.198 131.224 257.198 130.219 257.698C124.182 261.224 118.151 263.74 111.115 265.75C109.604 266.255 108.599 267.26 108.599 268.266L103.068 286.375H86.4792L80.4427 268.771C79.9427 267.76 78.9375 266.755 77.9323 266.255C71.3958 264.745 64.8594 261.724 58.8229 258.203C57.8177 257.698 56.3125 257.698 55.3073 258.203L38.7135 266.755L27.151 255.182L35.6979 238.583C36.1979 237.578 36.1979 236.068 35.6979 235.062C32.1771 229.026 29.6615 222.984 28.1562 215.943C27.651 214.432 26.6458 213.427 25.6406 213.427L7.54167 207.896V191.292L25.6406 185.755C26.6458 185.255 27.651 184.25 28.1562 183.24C29.6615 176.703 32.6823 170.161 35.6979 164.625C36.1979 163.62 36.1979 162.109 35.6979 161.104L26.6458 144L38.2083 132.427L55.3073 141.484C56.3125 141.99 57.8177 141.99 58.8229 141.484C64.3542 137.963 70.8906 135.448 77.4271 133.937C78.9375 133.437 79.9427 132.427 79.9427 131.422L85.474 113.312H102.062L107.594 131.422C108.094 132.427 109.104 133.437 110.109 133.937C116.646 135.448 123.177 137.963 128.708 141.484C129.714 141.99 131.224 141.99 132.229 141.484L149.323 132.427L160.885 144L151.839 161.104C151.333 162.109 151.333 163.62 151.839 164.625C155.359 170.667 157.87 176.703 159.38 183.24C159.88 184.75 160.885 185.755 161.891 185.755L179.995 191.292V207.391H181.5Z" fill="#2969BD"/>
<path d="M94.5208 147.521C65.8646 147.521 42.7344 170.667 42.7344 199.338C42.7344 228.016 65.8646 251.161 94.5208 251.161C123.177 251.161 146.307 228.016 146.307 199.338C146.307 171.167 123.177 147.521 94.5208 147.521ZM94.5208 243.615C69.8854 243.615 50.276 223.995 50.276 199.338C50.276 174.687 69.8854 155.068 94.5208 155.068C119.156 155.068 138.766 174.687 138.766 199.338C138.766 223.995 118.656 243.615 94.5208 243.615Z" fill="#2969BD"/>
<path d="M76.0156 60.0023L86.5729 66.0388C86.5729 69.5596 87.0729 73.5856 88.0781 77.1065L80.0365 86.1637C79.0313 87.169 79.0312 89.1846 79.5312 90.6898L87.0729 102.768C88.0781 104.273 89.5885 104.778 91.0938 104.273L102.661 101.257C105.172 103.773 108.193 105.784 111.708 107.799L112.714 119.872C112.714 121.382 114.224 122.888 115.734 123.393L129.807 126.914H130.818C132.323 126.914 133.328 126.414 133.833 124.903L139.865 114.336C143.385 114.336 147.406 113.836 150.927 112.83L159.974 120.877C160.979 121.882 162.995 121.882 164.5 121.382L176.568 113.836C178.078 112.83 178.578 111.32 178.078 109.81L175.057 98.2367C177.573 95.721 179.583 92.7054 181.594 89.1846L193.661 88.1742C195.172 88.1742 196.677 86.669 197.182 85.1585L200.703 71.07C201.203 69.5596 200.198 67.5492 199.193 67.044L188.635 60.5075C188.635 56.9867 188.13 53.4606 187.125 49.9398L195.172 40.8825C196.177 39.8773 196.177 37.8669 195.672 36.3565L188.13 24.2835C187.125 22.7731 185.62 22.2679 184.109 22.7731L172.042 25.794C169.531 23.2783 166.51 21.2627 163.495 19.2523L162.49 7.17938C162.49 5.66896 160.979 4.15854 159.474 3.65333L145.396 0.132501C143.885 -0.367499 141.875 0.637709 141.375 1.64292L134.839 12.2106C131.318 12.2106 127.797 12.7106 124.281 13.7158L115.229 5.66896C114.224 4.66375 112.214 4.66375 110.703 5.16375L98.6354 13.2158C97.1302 14.221 96.625 15.7315 97.1302 17.2419L99.6458 29.3148C97.1302 31.8304 95.1198 34.846 93.1094 37.8669L81.0417 38.8721C79.5313 38.8721 78.026 40.3825 77.5208 41.8929L74 55.9763C74 57.4867 74.5052 58.9971 76.0156 60.0023ZM84.5625 46.419L96.125 45.9138C97.6302 45.9138 98.6354 44.9085 99.1406 43.9033C101.151 39.8773 103.667 36.3565 106.682 33.3408C107.688 32.3304 108.193 30.8252 107.688 29.8148L105.172 18.7471L112.714 14.221L121.26 21.7679C122.266 22.7731 123.776 22.7731 124.781 22.7731C128.802 21.2627 133.328 20.7627 137.349 20.7627C138.859 20.7627 139.865 20.2575 140.37 18.7471L146.401 8.68458L154.948 10.7002L155.953 22.2679C155.953 23.7783 156.958 24.7835 157.964 25.2887C161.99 27.2992 165.005 29.8148 168.521 32.8356C169.026 33.8408 170.536 34.346 172.042 33.8408L183.104 30.8252L187.63 38.3721L180.089 46.9242C179.083 48.4294 179.083 49.4398 179.083 50.945C180.589 54.971 181.094 59.5023 181.094 63.5231C181.094 65.0335 181.594 66.0387 183.104 66.544L193.161 72.5804L191.146 81.1325L179.583 81.6377C178.078 81.6377 177.073 82.6429 176.568 83.6481C174.557 87.6742 172.042 91.195 169.026 94.2158C168.021 95.221 167.516 96.7315 168.021 97.7367L170.536 108.804L162.995 113.33L154.448 105.784C153.443 104.778 151.932 104.778 150.927 104.778C146.906 106.289 142.38 106.789 137.854 106.789C136.344 106.789 135.339 107.294 134.839 108.804L128.802 119.367L120.255 117.356L119.755 105.784C119.755 104.273 118.75 103.268 117.745 102.768C113.719 100.752 110.203 98.2367 107.188 95.221C106.177 94.2158 104.672 93.7106 103.667 94.2158L92.6042 96.7315L88.0781 89.1846L95.6198 80.6273C96.625 79.6221 96.625 78.1169 96.625 77.1065C95.1198 73.0856 94.6146 68.5544 94.6146 64.0283C94.6146 62.5179 94.1146 61.5127 92.6042 61.0075L83.0521 54.971L84.5625 46.419Z" fill="#2969BD"/>
<path d="M129.307 98.2367C131.822 98.7419 134.838 99.2471 137.854 99.2471C153.942 99.2471 168.02 88.1742 172.041 72.5804C174.052 63.5231 173.046 53.9658 168.02 45.9137C162.994 37.8669 155.453 32.3304 146.4 29.8148C143.885 29.3148 140.869 28.8096 137.854 28.8096C121.765 28.8096 107.687 39.8773 103.666 55.4762C101.656 64.5283 102.661 74.0908 107.687 82.1377C112.713 90.1898 120.255 95.721 129.307 98.2367ZM110.703 57.4867C113.718 44.9085 124.781 36.3564 137.348 36.3564C139.364 36.3564 141.874 36.8617 143.885 37.3617C150.927 38.8721 156.958 43.3981 160.979 49.9398C165.005 56.4814 166.01 63.5231 163.999 71.07C160.979 83.6481 149.921 92.2002 137.348 92.2002C135.338 92.2002 132.828 91.7002 130.817 91.195C123.775 89.1846 117.744 84.6533 113.718 78.1169C110.203 72.0752 108.692 64.5283 110.703 57.4867Z" fill="#2969BD"/>
<path d="M262.552 131.302L254.005 127.276C253.505 124.76 253 122.245 251.995 119.729L257.526 112.182C258.531 110.677 258.531 109.167 257.526 107.656L250.49 98.599C249.479 97.0885 247.974 96.5885 245.964 97.0885L237.417 100.109C235.406 98.599 232.891 97.0885 230.375 96.0833L229.37 86.526C228.87 85.0156 227.865 83.5052 226.354 83.5052L214.792 82C213.281 82 211.776 82.5 210.766 84.0104L206.745 92.5625C204.234 93.0677 201.719 93.5677 199.203 94.5781L191.661 89.0417C190.156 88.0365 188.646 88.0365 187.135 89.0417L178.089 96.0833C176.578 97.0885 176.078 98.599 176.578 100.615L179.594 109.167C178.089 111.177 176.578 113.693 175.573 116.208L166.526 117.719C165.016 118.219 163.505 119.229 163.505 120.734L162 132.307C162 133.818 162.5 135.328 164.01 136.333L172.557 140.359C173.062 142.875 173.563 145.891 174.568 148.406L169.036 155.448C168.031 156.958 168.031 158.469 169.036 159.979L176.078 169.036C177.083 170.542 178.589 171.047 180.099 170.542L188.646 167.526C190.656 169.036 193.172 170.542 195.688 171.552L197.193 180.604C197.698 182.115 198.703 183.625 200.208 183.625L211.776 185.135H212.276C213.786 185.135 215.292 184.125 215.797 183.12L219.818 174.568C222.333 174.068 225.349 173.562 227.865 172.557L235.406 178.089C236.911 179.094 238.422 179.094 239.927 178.089L248.979 171.047C250.49 170.042 250.99 168.531 250.49 166.521L247.469 157.964C248.979 155.953 250.49 153.438 251.495 150.922L260.542 149.411C262.052 148.911 263.557 147.906 263.557 146.396L265.068 134.823C265.068 133.312 264.062 131.807 262.552 131.302ZM256.016 142.37L247.469 143.88C245.964 143.88 244.958 144.885 244.453 146.396C243.448 149.411 241.438 152.432 239.427 154.948C238.422 155.953 238.422 157.464 238.922 158.469L241.943 166.521L237.417 170.042L230.375 165.01C229.37 164.005 227.865 164.005 226.859 164.505C223.839 166.016 220.323 166.521 216.802 167.021C215.292 167.021 214.286 168.026 213.786 169.036L210.266 176.578H204.234L202.724 168.026C202.724 166.521 201.719 165.51 200.208 165.01C197.193 163.5 194.177 161.99 191.661 159.979C190.656 158.974 189.151 158.974 188.146 159.474L180.099 162.495L176.578 157.964L181.609 150.922C182.615 149.917 182.615 148.406 182.109 147.401C180.604 144.38 180.099 140.859 179.594 137.339C179.594 135.828 178.589 134.823 177.583 134.323L169.542 130.297L170.547 124.26L179.094 122.75C180.604 122.75 181.609 121.745 182.109 120.234C183.62 117.214 185.125 114.198 187.135 111.682C188.146 110.677 188.146 109.167 187.641 108.161L184.625 100.109L189.151 96.5885L196.188 101.62C197.193 102.625 198.703 102.625 199.708 102.12C202.724 100.615 206.245 100.109 209.26 99.6042C210.771 99.6042 211.776 98.599 212.276 97.5938L215.797 90.0469L221.828 91.0521L223.339 99.6042C223.339 101.115 224.344 102.12 225.849 102.625C228.87 103.63 231.885 105.646 234.401 107.656C235.406 108.661 236.911 108.661 237.917 108.161L245.964 105.141L249.479 109.667L244.453 116.714C243.448 117.719 243.448 119.229 243.953 120.234C245.458 123.25 245.964 126.776 246.464 129.792C246.464 131.302 247.469 132.307 248.474 132.812L256.521 136.333L256.016 142.37Z" fill="#2969BD"/>
<path d="M213.281 104.635C206.745 104.635 201.213 106.651 196.187 110.677C190.156 115.203 186.13 122.245 185.125 129.792C184.12 137.339 186.13 144.885 190.656 150.922C196.187 158.469 204.734 162.495 213.786 162.495C220.323 162.495 225.849 160.479 230.88 156.458C243.448 146.896 245.963 128.787 236.411 116.208C230.88 109.167 222.333 104.635 213.281 104.635ZM225.849 150.422C222.333 153.438 217.807 154.948 213.281 154.948C206.745 154.948 200.208 151.927 196.187 146.396C192.666 141.865 191.161 136.333 192.166 130.797C193.172 125.266 195.687 120.234 200.208 116.714C203.729 113.693 208.255 112.182 212.781 112.182C219.317 112.182 225.849 115.203 229.875 120.734C237.416 130.297 235.406 143.375 225.849 150.422Z" fill="#2969BD"/>
</svg>
