<svg width="200" height="200" viewBox="0 0 200 200" fill="none" xmlns="http://www.w3.org/2000/svg">
<path d="M67.9186 177.201C71.0572 177.201 73.6122 174.603 73.6122 171.409C73.6122 168.219 71.0572 165.622 67.9186 165.622C64.7766 165.622 62.2217 168.219 62.2217 171.409C62.2217 174.603 64.7766 177.201 67.9186 177.201ZM67.9186 168.843C69.3098 168.843 70.443 169.995 70.443 171.409C70.443 172.827 69.3098 173.979 67.9186 173.979C66.5241 173.979 65.3908 172.827 65.3908 171.409C65.3908 169.995 66.5241 168.843 67.9186 168.843Z" fill="#2969BD"/>
<path d="M61.5258 67.0564C61.2713 65.7629 60.5384 64.6488 59.4594 63.9176L58.8283 63.4864C56.6059 61.9791 53.5861 62.5862 52.0999 64.8489L43.9498 77.2523C42.4636 79.515 43.0642 82.5814 45.29 84.0956L45.9212 84.5233C46.7287 85.0717 47.6584 85.358 48.6051 85.358C48.924 85.358 49.2429 85.3269 49.5619 85.2614C50.8343 85.0027 51.9302 84.2577 52.6496 83.1643L60.7997 70.7574C61.5224 69.6606 61.7769 68.3464 61.5258 67.0564ZM58.1667 68.9673L50.0166 81.3707C49.7655 81.7535 49.3855 82.0088 48.9444 82.0985C48.5067 82.1882 48.0554 82.0985 47.6821 81.8432L47.0476 81.4121C46.274 80.8878 46.0671 79.8254 46.5828 79.039L54.7329 66.6356C55.2486 65.8526 56.2971 65.6422 57.0707 66.163L57.7018 66.5942C58.472 67.1185 58.6824 68.1843 58.1667 68.9673Z" fill="#2969BD"/>
<path d="M94.8829 40.7631H160.437C161.312 40.7631 162.021 40.0422 162.021 39.1523C162.021 38.2658 161.312 37.5415 160.437 37.5415H94.8829C94.0109 37.5415 93.3018 38.2658 93.3018 39.1523C93.3018 40.0422 94.0075 40.7631 94.8829 40.7631Z" fill="#2969BD"/>
<path d="M94.8829 55.943H160.437C161.312 55.943 162.021 55.2221 162.021 54.3322C162.021 53.4423 161.312 52.7214 160.437 52.7214H94.8829C94.0109 52.7214 93.3018 53.4423 93.3018 54.3322C93.3018 55.2221 94.0075 55.943 94.8829 55.943Z" fill="#2969BD"/>
<path d="M94.8829 71.1198H160.437C161.312 71.1198 162.021 70.3989 162.021 69.509C162.021 68.6191 161.312 67.8982 160.437 67.8982H94.8829C94.0109 67.8982 93.3018 68.6191 93.3018 69.509C93.3018 70.3989 94.0075 71.1198 94.8829 71.1198Z" fill="#2969BD"/>
<path d="M94.8829 86.2963H160.437C161.312 86.2963 162.021 85.5754 162.021 84.6889C162.021 83.799 161.312 83.0781 160.437 83.0781H94.8829C94.0109 83.0781 93.3018 83.799 93.3018 84.6889C93.3018 85.5754 94.0075 86.2963 94.8829 86.2963Z" fill="#2969BD"/>
<path d="M94.8829 101.473H160.437C161.312 101.473 162.021 100.752 162.021 99.862C162.021 98.9721 161.312 98.2512 160.437 98.2512H94.8829C94.0109 98.2512 93.3018 98.9756 93.3018 99.862C93.3018 100.752 94.0075 101.473 94.8829 101.473Z" fill="#2969BD"/>
<mask id="mask0_429_282" style="mask-type:luminance" maskUnits="userSpaceOnUse" x="0" y="0" width="200" height="200">
<path d="M0 0H200V200H0V0Z" fill="white"/>
</mask>
<g mask="url(#mask0_429_282)">
<path d="M198.219 0H75.3873C74.5153 0 73.8061 0.720888 73.8061 1.60734V10.7202H66.7316C65.8596 10.7202 65.1471 11.4445 65.1471 12.331V20.2021L61.5097 25.7381C61.2756 26.0934 61.1908 26.5315 61.2722 26.9488C61.357 27.3662 61.5979 27.7352 61.9474 27.9732L65.6458 30.4843L62.3342 35.5201L58.6392 33.0126C58.2897 32.7746 57.8656 32.6918 57.4482 32.7711C57.0377 32.8539 56.6746 33.1022 56.4405 33.4541L19.0253 90.3939C18.9507 90.5077 18.8896 90.6285 18.8455 90.7595L13.2334 107.192C12.9959 107.888 13.2503 108.654 13.8509 109.061L28.6344 119.098C28.9025 119.281 29.2112 119.371 29.5166 119.371C29.8966 119.371 30.2733 119.233 30.5719 118.96L43.479 107.216C43.5774 107.123 43.6656 107.023 43.7403 106.909L53.7871 91.6184C58.7953 92.0461 62.7414 96.3162 62.7414 101.511V135.558H7.67555C3.55299 135.558 0.197266 138.966 0.197266 143.157C0.197266 147.348 3.55299 150.759 7.67555 150.759H60.0066C60.3323 152.242 60.8413 153.656 61.5029 154.981H23.5041C16.321 154.981 10.4816 160.917 10.4816 168.219V179.605C5.42935 179.943 1.41876 184.216 1.41876 189.432V198.351C1.41876 199.241 2.12791 199.962 3.00332 199.962H96.1765C97.0519 199.962 97.7611 199.241 97.7611 198.351V189.432C97.7611 184.403 94.0389 180.25 89.2479 179.653H164.421C164.886 179.653 165.327 179.446 165.625 179.084L175.591 167.198H198.219C199.095 167.198 199.804 166.477 199.804 165.587V1.60734C199.804 0.720888 199.095 0 198.219 0ZM183.714 13.9418V151.525H164.421C163.546 151.525 162.836 152.242 162.836 153.135V176.435H88.7016V160.489C92.4781 157.195 94.8838 152.318 94.8838 146.875C94.8838 141.432 92.4781 136.555 88.7016 133.261V86.7377C88.7016 76.0624 80.8637 67.2358 70.7388 65.8285L81.0333 50.1587C81.5219 49.4205 81.3251 48.4203 80.599 47.927L76.9006 45.416L80.2122 40.3767L83.9072 42.8877C84.1685 43.0671 84.4739 43.1567 84.786 43.1567C84.8912 43.1567 84.993 43.1498 85.0982 43.1257C85.5088 43.0429 85.8718 42.798 86.1025 42.4427L91.6909 33.9404C91.9216 33.5851 92.0098 33.1505 91.925 32.7332C91.8436 32.3124 91.6027 31.9467 91.2532 31.7087L69.29 16.7977C68.9914 16.5942 68.6487 16.5356 68.3128 16.5563V13.9418H183.714ZM181.868 154.743L166.005 173.669V154.743H181.868ZM77.2331 132.15C85.2203 132.15 91.718 138.756 91.718 146.875C91.718 154.994 85.217 161.6 77.2331 161.6C69.2459 161.6 62.7482 154.994 62.7482 146.875C62.7482 138.756 69.2459 132.15 77.2331 132.15ZM68.8523 20.3677L88.1791 33.4885L84.3517 39.3108L65.0249 26.19L68.8523 20.3677ZM68.2788 32.2744L77.5758 38.5865L74.2642 43.6258L64.9672 37.3137L68.2788 32.2744ZM58.1913 36.586L77.5181 49.7068L74.8953 53.701L55.5413 40.6181L58.1913 36.586ZM21.1731 93.7672L39.8315 106.212L34.1515 111.379L18.7674 100.804L21.1731 93.7672ZM29.3741 115.728L16.6298 107.074L17.6952 103.953L31.7187 113.593L29.3741 115.728ZM41.9793 103.791L22.5473 90.832L53.7837 43.2947L73.1377 56.3811L41.9793 103.791ZM55.7313 88.6658L68.7369 68.8742C78.0678 69.3157 85.5325 77.1454 85.5325 86.7377V131.046C83.0556 129.698 80.2326 128.932 77.2331 128.932C72.9239 128.932 68.9778 130.512 65.9105 133.126V101.511C65.9105 95.2228 61.5402 89.9559 55.7313 88.6658ZM7.67555 147.537C5.29702 147.537 3.36638 145.571 3.36638 143.157C3.36638 140.742 5.29702 138.776 7.67555 138.776H61.4995C60.2814 141.211 59.5791 143.957 59.5791 146.872C59.5791 147.096 59.6028 147.313 59.613 147.537H7.67555ZM23.5041 158.199H63.5557C66.7961 162.234 71.7194 164.818 77.2331 164.818C80.2326 164.818 83.0556 164.049 85.5325 162.704V179.57H13.6473V168.219C13.6473 162.693 18.0685 158.199 23.5041 158.199ZM94.5953 189.435V196.744H4.58787V189.435C4.58787 185.772 7.51947 182.792 11.1229 182.792H88.0603C91.6637 182.792 94.5953 185.772 94.5953 189.435ZM196.635 163.976H178.292L186.503 154.177C186.747 153.887 186.883 153.515 186.883 153.135V12.331C186.883 11.4445 186.174 10.7202 185.298 10.7202H76.9718V3.21813H196.635V163.976Z" fill="#2969BD"/>
</g>
<path d="M139.052 135.774L148.354 126.318L149.999 127.99L140.697 137.446L139.052 135.774Z" fill="#2969BD"/>
<path d="M150.349 143.706C150.202 143.707 150.056 143.679 149.919 143.624C149.728 143.546 149.561 143.419 149.435 143.255C149.308 143.091 149.226 142.896 149.198 142.689L148.034 134.412L150.361 134.081L151.233 140.313L155.002 137.226V128.334C155.001 128.178 155.031 128.024 155.089 127.88C155.147 127.736 155.232 127.605 155.34 127.494L160.074 122.681C161.05 121.696 161.823 120.524 162.351 119.234C162.878 117.943 163.148 116.558 163.145 115.161V112.961H160.981C159.607 112.958 158.245 113.233 156.975 113.769C155.705 114.305 154.552 115.091 153.583 116.083L148.849 120.896C148.74 121.005 148.611 121.092 148.469 121.151C148.328 121.21 148.176 121.24 148.023 121.239H139.275L136.239 125.094L142.369 125.981L142.044 128.346L133.901 127.163C133.698 127.134 133.506 127.051 133.344 126.922C133.183 126.793 133.058 126.624 132.982 126.43C132.905 126.235 132.881 126.022 132.911 125.815C132.942 125.607 133.027 125.411 133.156 125.247L137.809 119.335C137.917 119.193 138.054 119.078 138.211 118.998C138.368 118.918 138.541 118.876 138.717 118.874H147.546L151.931 114.404C153.117 113.192 154.527 112.231 156.081 111.577C157.634 110.924 159.3 110.59 160.981 110.596H163.145C163.762 110.596 164.354 110.845 164.79 111.289C165.227 111.732 165.472 112.334 165.472 112.961V115.161C165.477 116.87 165.149 118.563 164.506 120.142C163.863 121.722 162.918 123.155 161.726 124.36L157.329 128.819V137.794C157.328 137.971 157.288 138.147 157.211 138.306C157.135 138.466 157.024 138.606 156.887 138.716L151.071 143.446C150.866 143.613 150.612 143.705 150.349 143.706Z" fill="#2969BD"/>
<path d="M125.507 157.903H128.339C128.339 161.339 126.996 164.634 124.606 167.063C122.217 169.492 118.975 170.857 115.596 170.857V167.979C121.075 167.979 125.507 163.473 125.507 157.903ZM115.596 162.221V165.1C119.504 165.1 122.675 161.876 122.675 157.903H119.843C119.843 160.292 117.946 162.221 115.596 162.221ZM121.627 138.601L126.64 143.696C127.744 144.819 127.744 146.647 126.64 147.77L122.137 152.347C121.033 153.47 119.235 153.47 118.13 152.347L116.374 150.562L115.369 151.57L117.125 153.355C118.229 154.477 118.229 156.305 117.125 157.428L115.128 159.458C114.024 160.58 112.226 160.58 111.121 159.458L109.366 157.673L108.36 158.695L110.116 160.479C111.22 161.602 111.22 163.43 110.116 164.553L105.613 169.13C104.509 170.253 102.711 170.253 101.606 169.13L96.5939 164.035C95.4895 162.912 95.4895 161.084 96.5939 159.961L101.097 155.384C102.201 154.261 103.999 154.261 105.104 155.384L106.859 157.169L107.865 156.147L106.109 154.377C105.005 153.254 105.005 151.426 106.109 150.303L108.12 148.259C109.224 147.137 111.022 147.137 112.127 148.259L113.882 150.044L114.888 149.022L113.118 147.252C112.013 146.129 112.013 144.301 113.118 143.178L117.62 138.601C118.739 137.464 120.523 137.464 121.627 138.601ZM100.105 160.479L98.6045 162.005L103.617 167.101L105.118 165.575L100.105 160.479ZM103.107 157.428L101.606 158.954L106.619 164.049L108.12 162.523L103.107 157.428ZM110.116 150.303L108.12 152.333L113.132 157.428L115.128 155.399L110.116 150.303ZM116.629 143.682L115.128 145.208L120.141 150.303L121.642 148.777L116.629 143.682ZM119.631 140.631L118.13 142.156L123.142 147.252L124.643 145.726L119.631 140.631Z" fill="#2969BD"/>
</svg>
