<svg width="355" height="303" viewBox="0 0 355 303" fill="none" xmlns="http://www.w3.org/2000/svg">
<mask id="mask0_429_283" style="mask-type:luminance" maskUnits="userSpaceOnUse" x="52" y="184" width="221" height="119">
<path d="M52.3643 184.172H272.333V302.172H52.3643V184.172Z" fill="white"/>
</mask>
<g mask="url(#mask0_429_283)">
<path d="M248.708 228.74C246.25 225.396 243.604 222.208 240.776 219.172C237.947 216.13 234.947 213.266 231.786 210.578C228.625 207.885 225.317 205.385 221.864 203.078C218.411 200.771 214.838 198.667 211.14 196.776C207.442 194.88 203.645 193.203 199.755 191.75C195.864 190.292 191.901 189.068 187.869 188.068C183.833 187.073 179.755 186.312 175.635 185.786C171.515 185.26 167.375 184.974 163.218 184.927H162.432C158.265 184.937 154.114 185.182 149.973 185.672C145.838 186.167 141.744 186.896 137.687 187.859C133.635 188.828 129.656 190.026 125.744 191.458C121.828 192.885 118.015 194.542 114.296 196.417C110.578 198.286 106.979 200.375 103.5 202.667C100.026 204.958 96.6974 207.448 93.5099 210.13C90.3276 212.807 87.3068 215.667 84.4578 218.698C81.6037 221.729 78.937 224.922 76.4578 228.26C72.6818 233.229 69.3328 238.474 66.4058 243.984C63.4839 249.5 61.0308 255.213 59.0412 261.13C57.0516 267.042 55.5516 273.078 54.5516 279.234C53.5464 285.391 53.0464 291.588 53.0568 297.828V301.25L162.395 301.656L268.307 302.104H271.734V298.682C271.791 292.448 271.343 286.25 270.385 280.083C269.432 273.922 267.984 267.88 266.046 261.948C264.104 256.021 261.697 250.292 258.822 244.755C255.953 239.213 252.645 233.948 248.916 228.948L248.708 228.74ZM166.197 260.24C181.63 260.125 196.708 257.766 211.432 253.161C217.338 266.531 220.536 280.521 221.026 295.125L165.994 294.818L166.197 260.24ZM166.197 253.401L166.541 195.255C175.203 202.37 183.057 210.281 190.114 218.979C197.171 227.682 203.281 237 208.447 246.937C194.692 251.135 180.619 253.292 166.234 253.401H166.197ZM159.348 253.401C145.041 252.786 131.14 250.083 117.645 245.297C122.927 235.604 129.109 226.526 136.187 218.057C143.27 209.594 151.114 201.901 159.723 194.984L159.348 253.401ZM159.348 260.24L159.14 294.818L104.317 294.615C104.593 287.161 105.598 279.812 107.328 272.562C109.057 265.307 111.484 258.297 114.598 251.521C129.062 256.729 143.979 259.651 159.348 260.276V260.24ZM227.875 295.125C227.401 279.74 224.088 264.99 217.942 250.87C227.802 247.266 236.937 242.328 245.354 236.062C248.369 240.391 251.052 244.917 253.406 249.635C255.76 254.359 257.755 259.224 259.395 264.24C261.036 269.255 262.302 274.359 263.192 279.557C264.083 284.755 264.588 289.99 264.713 295.266L227.875 295.125ZM241.583 230.521C233.453 236.474 224.651 241.161 215.166 244.578C210.093 234.62 204.098 225.255 197.182 216.474C190.26 207.698 182.552 199.677 174.046 192.417C180.64 193.229 187.093 194.672 193.406 196.755C199.713 198.833 205.76 201.51 211.536 204.781C217.317 208.052 222.723 211.859 227.75 216.198C232.776 220.531 237.333 225.318 241.411 230.552L241.583 230.521ZM152.083 192.385C143.703 199.411 136.067 207.177 129.187 215.672C122.307 224.172 116.302 233.245 111.171 242.901C101.791 239.229 92.8016 234.771 84.2026 229.526C86.2703 226.943 88.4578 224.463 90.7703 222.094C93.0828 219.724 95.5099 217.474 98.0412 215.344C100.578 213.213 103.213 211.213 105.947 209.344C108.682 207.474 111.505 205.745 114.411 204.156C117.312 202.568 120.291 201.125 123.343 199.828C126.39 198.531 129.5 197.391 132.661 196.401C135.822 195.411 139.026 194.583 142.27 193.911C145.515 193.24 148.786 192.734 152.083 192.385ZM80.1245 235.036C89.062 240.594 98.4266 245.302 108.223 249.161C104.932 256.302 102.369 263.703 100.541 271.349C98.7131 279 97.6558 286.755 97.3641 294.615H60.0464C60.1974 289.292 60.7391 284.01 61.6714 278.771C62.6037 273.531 63.9162 268.385 65.6141 263.338C67.3068 258.292 69.3641 253.396 71.786 248.651C74.2078 243.911 76.9631 239.37 80.0568 235.036H80.1245Z" fill="#2969BD"/>
</g>
<path d="M186.677 58.1458H241.26C241.714 58.1458 242.151 58.0573 242.573 57.8854C242.99 57.7083 243.359 57.4635 243.682 57.1406C244.005 56.8229 244.25 56.4531 244.427 56.0312C244.599 55.6146 244.688 55.1771 244.688 54.724V15.9062C244.688 15.4531 244.599 15.0156 244.427 14.5938C244.25 14.1771 244.005 13.8073 243.682 13.4844C243.359 13.1667 242.99 12.9167 242.573 12.7448C242.151 12.5729 241.714 12.4844 241.26 12.4844H186.677C186.219 12.4844 185.786 12.5729 185.365 12.7448C184.943 12.9167 184.573 13.1667 184.25 13.4844C183.932 13.8073 183.682 14.1771 183.51 14.5938C183.333 15.0156 183.25 15.4531 183.25 15.9062V54.724C183.25 55.1771 183.333 55.6146 183.51 56.0312C183.682 56.4531 183.932 56.8229 184.25 57.1406C184.573 57.4635 184.943 57.7083 185.365 57.8854C185.781 58.0573 186.219 58.1458 186.677 58.1458ZM190.104 37.2448H200.005V51.3021H190.104V37.2448ZM219.396 37.2448V51.3021H206.859V37.2448H219.396ZM206.859 30.4062V19.3229H219.396V30.4062H206.859ZM226.25 51.3021V37.2448H237.833V51.3021H226.25ZM237.833 30.4062H226.25V19.3229H237.833V30.4062ZM200.141 19.3229V30.4062H190.104V19.3229H200.141Z" fill="#2969BD"/>
<path d="M296.677 58.1458H351.26C351.714 58.1458 352.151 58.0573 352.573 57.8854C352.99 57.7083 353.359 57.4635 353.682 57.1406C354.005 56.8229 354.25 56.4531 354.427 56.0312C354.599 55.6146 354.688 55.1771 354.688 54.724V15.9062C354.688 15.4531 354.599 15.0156 354.427 14.5938C354.25 14.1771 354.005 13.8073 353.682 13.4844C353.359 13.1667 352.99 12.9167 352.573 12.7448C352.151 12.5729 351.714 12.4844 351.26 12.4844H296.677C296.219 12.4844 295.786 12.5729 295.365 12.7448C294.943 12.9167 294.573 13.1667 294.25 13.4844C293.932 13.8073 293.682 14.1771 293.51 14.5938C293.333 15.0156 293.25 15.4531 293.25 15.9062V54.724C293.25 55.1771 293.333 55.6146 293.51 56.0312C293.682 56.4531 293.932 56.8229 294.25 57.1406C294.573 57.4635 294.943 57.7083 295.365 57.8854C295.781 58.0573 296.219 58.1458 296.677 58.1458ZM300.104 37.2448H310.005V51.3021H300.104V37.2448ZM329.396 37.2448V51.3021H316.859V37.2448H329.396ZM316.859 30.4062V19.3229H329.396V30.4062H316.859ZM336.25 51.3021V37.2448H347.833V51.3021H336.25ZM347.833 30.4062H336.25V19.3229H347.833V30.4062ZM310.141 19.3229V30.4062H300.104V19.3229H310.141Z" fill="#2969BD"/>
<path d="M269.339 81.6406C270.568 81.6354 271.786 81.5156 272.99 81.276C274.198 81.0312 275.37 80.6771 276.505 80.2083C277.641 79.7344 278.719 79.1615 279.745 78.4792C280.766 77.7917 281.708 77.0208 282.578 76.151C283.448 75.2812 284.229 74.3385 284.911 73.3177C285.594 72.2969 286.172 71.2188 286.646 70.0833C287.115 68.9531 287.474 67.7812 287.714 66.5781C287.958 65.375 288.078 64.1615 288.078 62.9323V13.6823C288.078 12.7812 287.995 11.8958 287.818 11.0104C287.641 10.1302 287.38 9.27604 287.036 8.44792C286.693 7.61458 286.271 6.82813 285.771 6.08333C285.271 5.33333 284.703 4.64062 284.068 4.01042C283.427 3.375 282.74 2.80729 281.99 2.30729C281.24 1.80729 280.453 1.38542 279.62 1.04167C278.786 0.697916 277.932 0.4375 277.047 0.265625C276.167 0.0885413 275.276 0 274.375 0H264.094C263.193 0 262.302 0.0885413 261.422 0.265625C260.536 0.4375 259.682 0.697916 258.849 1.04167C258.021 1.38542 257.229 1.80729 256.479 2.30729C255.734 2.80729 255.042 3.375 254.401 4.01042C253.766 4.64062 253.198 5.33333 252.698 6.08333C252.198 6.82813 251.776 7.61458 251.432 8.44792C251.089 9.27604 250.828 10.1302 250.651 11.0104C250.479 11.8958 250.391 12.7812 250.391 13.6823V62.9323C250.391 64.1667 250.51 65.3958 250.755 66.6094C250.995 67.8177 251.359 68.9948 251.833 70.1406C252.312 71.2812 252.896 72.3646 253.589 73.3906C254.281 74.4167 255.068 75.3646 255.953 76.2344C256.833 77.1042 257.792 77.8802 258.828 78.5573C259.859 79.2396 260.953 79.8125 262.104 80.276C263.25 80.7396 264.432 81.0885 265.651 81.3177C266.87 81.5469 268.099 81.651 269.339 81.6406ZM257.448 13.6823C257.448 13.2344 257.49 12.7865 257.578 12.349C257.667 11.9062 257.797 11.4792 257.969 11.0625C258.141 10.651 258.354 10.2552 258.604 9.88021C258.854 9.50521 259.135 9.16146 259.453 8.84375C259.771 8.52604 260.12 8.24479 260.495 7.99479C260.87 7.74479 261.26 7.53125 261.677 7.35937C262.094 7.1875 262.521 7.0625 262.964 6.97396C263.406 6.88542 263.849 6.84375 264.302 6.84375H274.578C275.031 6.84375 275.474 6.88542 275.917 6.97396C276.359 7.0625 276.786 7.1875 277.203 7.35937C277.62 7.53125 278.016 7.74479 278.385 7.99479C278.76 8.24479 279.109 8.52604 279.427 8.84375C279.745 9.16146 280.026 9.50521 280.276 9.88021C280.526 10.2552 280.74 10.651 280.911 11.0625C281.083 11.4792 281.214 11.9062 281.302 12.349C281.391 12.7865 281.432 13.2344 281.432 13.6823V62.9323C281.432 63.7135 281.354 64.4844 281.203 65.2448C281.052 66.0104 280.828 66.7552 280.526 67.474C280.229 68.1927 279.865 68.875 279.427 69.526C278.995 70.1719 278.5 70.7708 277.948 71.3229C277.396 71.875 276.797 72.3646 276.151 72.8021C275.5 73.2344 274.813 73.599 274.094 73.8958C273.37 74.1927 272.63 74.4219 271.865 74.5729C271.099 74.724 270.323 74.8021 269.542 74.8021C268.76 74.8021 267.99 74.724 267.224 74.5729C266.458 74.4219 265.714 74.1927 264.995 73.8958C264.271 73.599 263.589 73.2344 262.938 72.8021C262.286 72.3646 261.688 71.875 261.135 71.3229C260.583 70.7708 260.089 70.1719 259.656 69.526C259.224 68.875 258.859 68.1927 258.557 67.474C258.26 66.7552 258.031 66.0104 257.88 65.2448C257.729 64.4844 257.651 63.7135 257.651 62.9323L257.448 13.6823Z" fill="#2969BD"/>
<path d="M265.911 112.354V124.083C265.302 124.344 264.734 124.672 264.198 125.062C263.667 125.453 263.188 125.901 262.755 126.401C262.323 126.901 261.958 127.448 261.651 128.031C261.344 128.62 261.109 129.229 260.943 129.87C260.776 130.51 260.688 131.156 260.672 131.818C260.656 132.479 260.714 133.13 260.849 133.776C260.979 134.427 261.188 135.047 261.464 135.651C261.74 136.25 262.078 136.807 262.484 137.333C262.891 137.854 263.349 138.323 263.859 138.74C264.375 139.156 264.927 139.51 265.521 139.802C266.115 140.094 266.734 140.312 267.38 140.463C268.021 140.609 268.677 140.687 269.339 140.687C270 140.687 270.651 140.609 271.297 140.463C271.943 140.312 272.562 140.094 273.156 139.802C273.75 139.51 274.302 139.156 274.812 138.74C275.328 138.323 275.786 137.854 276.193 137.333C276.594 136.807 276.938 136.25 277.214 135.651C277.49 135.047 277.693 134.427 277.828 133.776C277.964 133.13 278.021 132.479 278.005 131.818C277.99 131.156 277.896 130.51 277.729 129.87C277.568 129.229 277.328 128.62 277.026 128.031C276.719 127.448 276.349 126.901 275.922 126.401C275.49 125.901 275.005 125.453 274.474 125.062C273.943 124.672 273.37 124.344 272.766 124.083V112.354C274.094 112.151 275.391 111.828 276.661 111.396C277.932 110.958 279.156 110.417 280.333 109.766C281.505 109.115 282.615 108.365 283.656 107.516C284.698 106.672 285.656 105.74 286.531 104.719C287.411 103.703 288.188 102.62 288.87 101.463C289.552 100.307 290.13 99.0989 290.599 97.8437C291.068 96.5833 291.417 95.2968 291.656 93.9791C291.896 92.6562 292.016 91.328 292.021 89.9843V86.5624C292.021 86.1093 291.932 85.677 291.76 85.2551C291.589 84.8385 291.339 84.4687 291.016 84.1458C290.698 83.828 290.323 83.578 289.906 83.4062C289.484 83.2291 289.047 83.1458 288.594 83.1458H250.078C249.625 83.1458 249.188 83.2291 248.771 83.4062C248.349 83.578 247.979 83.828 247.656 84.1458C247.339 84.4687 247.089 84.8385 246.917 85.2551C246.74 85.677 246.656 86.1093 246.656 86.5624V89.9843C246.656 91.328 246.776 92.6562 247.016 93.9791C247.255 95.2968 247.609 96.5833 248.078 97.8437C248.547 99.0989 249.12 100.307 249.802 101.463C250.484 102.62 251.266 103.703 252.141 104.719C253.016 105.74 253.974 106.672 255.016 107.516C256.057 108.365 257.167 109.115 258.344 109.766C259.516 110.417 260.74 110.958 262.01 111.396C263.281 111.828 264.583 112.151 265.911 112.354ZM269.339 133.833C269.099 133.833 268.865 133.786 268.641 133.693C268.422 133.604 268.224 133.469 268.052 133.302C267.885 133.13 267.75 132.932 267.661 132.713C267.568 132.49 267.521 132.26 267.521 132.021C267.521 131.776 267.568 131.547 267.661 131.323C267.75 131.104 267.885 130.906 268.052 130.74C268.224 130.568 268.422 130.437 268.641 130.344C268.865 130.25 269.099 130.208 269.339 130.208C269.578 130.208 269.807 130.25 270.031 130.344C270.255 130.437 270.453 130.568 270.62 130.74C270.792 130.906 270.922 131.104 271.016 131.323C271.109 131.547 271.151 131.776 271.151 132.021C271.151 132.26 271.109 132.49 271.016 132.713C270.922 132.932 270.792 133.13 270.62 133.302C270.453 133.469 270.255 133.604 270.031 133.693C269.807 133.786 269.578 133.833 269.339 133.833ZM253.505 89.8489H285.167C285.167 90.8853 285.062 91.9114 284.859 92.927C284.656 93.9478 284.354 94.9322 283.958 95.8905C283.562 96.8489 283.073 97.7603 282.495 98.6197C281.917 99.4791 281.26 100.281 280.526 101.01C279.792 101.745 278.99 102.401 278.125 102.974C277.266 103.552 276.354 104.036 275.391 104.432C274.432 104.828 273.443 105.13 272.422 105.333C271.406 105.531 270.375 105.635 269.339 105.635C268.297 105.635 267.271 105.531 266.25 105.333C265.234 105.13 264.245 104.828 263.281 104.432C262.323 104.036 261.411 103.552 260.547 102.974C259.682 102.401 258.885 101.745 258.151 101.01C257.417 100.281 256.76 99.4791 256.182 98.6197C255.604 97.7603 255.115 96.8489 254.719 95.8905C254.318 94.9322 254.016 93.9478 253.812 92.927C253.609 91.9114 253.51 90.8853 253.505 89.8489Z" fill="#2969BD"/>
<path d="M229.656 124.151C236.281 124.745 242.776 125.979 249.156 127.849C249.474 127.875 249.797 127.875 250.114 127.849C250.567 127.911 251.021 127.891 251.463 127.776C251.911 127.661 252.317 127.469 252.682 127.198C253.052 126.922 253.354 126.588 253.588 126.193C253.823 125.797 253.974 125.375 254.036 124.922C254.104 124.469 254.078 124.021 253.968 123.578C253.854 123.13 253.661 122.724 253.385 122.359C253.109 121.989 252.776 121.693 252.38 121.458C251.989 121.224 251.562 121.073 251.109 121.005C244.291 119.026 237.343 117.719 230.276 117.073C229.823 117.031 229.375 117.078 228.937 117.213C228.505 117.349 228.109 117.562 227.76 117.854C227.411 118.146 227.125 118.495 226.916 118.896C226.703 119.302 226.578 119.729 226.536 120.182C226.495 120.641 226.541 121.083 226.677 121.516C226.817 121.953 227.031 122.344 227.323 122.693C227.614 123.047 227.963 123.323 228.37 123.536C228.776 123.745 229.203 123.875 229.656 123.911V124.151Z" fill="#2969BD"/>
<path d="M219.687 120.391C219.687 119.938 219.599 119.5 219.427 119.083C219.255 118.661 219.005 118.292 218.682 117.974C218.364 117.651 217.995 117.406 217.573 117.229C217.151 117.057 216.713 116.969 216.26 116.969C209.167 117.214 202.167 118.151 195.255 119.776C194.802 119.828 194.375 119.964 193.979 120.188C193.578 120.406 193.234 120.698 192.953 121.057C192.667 121.411 192.463 121.812 192.338 122.25C192.213 122.688 192.177 123.135 192.229 123.589C192.281 124.042 192.417 124.469 192.64 124.865C192.859 125.266 193.151 125.604 193.51 125.891C193.864 126.172 194.265 126.38 194.703 126.505C195.146 126.63 195.588 126.667 196.047 126.615H196.87C203.286 125.047 209.797 124.109 216.396 123.812C216.838 123.792 217.265 123.693 217.667 123.51C218.073 123.328 218.427 123.078 218.734 122.76C219.042 122.443 219.276 122.078 219.443 121.667C219.604 121.26 219.687 120.833 219.687 120.391Z" fill="#2969BD"/>
<path d="M164.521 139.818C165.188 139.828 165.807 139.656 166.37 139.302C171.927 135.766 177.776 132.802 183.917 130.411C184.323 130.24 184.682 129.995 185 129.677C185.313 129.365 185.552 129.005 185.724 128.594C185.901 128.187 185.99 127.76 185.995 127.318C186 126.875 185.927 126.448 185.766 126.031C185.604 125.615 185.37 125.24 185.057 124.911C184.75 124.583 184.391 124.328 183.979 124.146C183.568 123.958 183.141 123.854 182.688 123.838C182.24 123.823 181.802 123.896 181.38 124.052C174.807 126.588 168.547 129.745 162.604 133.526C162.219 133.771 161.901 134.078 161.641 134.448C161.386 134.823 161.209 135.229 161.11 135.672C161.016 136.115 161.005 136.557 161.089 137.005C161.167 137.448 161.328 137.865 161.573 138.245C161.896 138.745 162.318 139.135 162.844 139.411C163.365 139.693 163.927 139.828 164.521 139.818Z" fill="#2969BD"/>
<path d="M139.167 162.594C140.245 162.589 141.125 162.167 141.802 161.328C145.99 156.156 150.625 151.427 155.714 147.136C156.063 146.844 156.339 146.495 156.552 146.094C156.761 145.688 156.886 145.261 156.922 144.807C156.959 144.36 156.912 143.917 156.771 143.485C156.636 143.052 156.422 142.662 156.125 142.313C155.834 141.969 155.485 141.688 155.084 141.479C154.677 141.271 154.25 141.146 153.797 141.11C153.344 141.073 152.901 141.12 152.469 141.261C152.032 141.396 151.641 141.61 151.297 141.901C145.891 146.485 140.959 151.526 136.495 157.021C136.204 157.375 135.995 157.771 135.87 158.203C135.74 158.641 135.698 159.083 135.745 159.537C135.792 159.99 135.927 160.417 136.146 160.818C136.365 161.214 136.651 161.557 137.006 161.844C137.636 162.349 138.36 162.599 139.167 162.594Z" fill="#2969BD"/>
<path d="M124.568 182.672C125.031 182.896 125.526 183.01 126.042 183.016C126.698 183.016 127.302 182.844 127.859 182.495C128.417 182.151 128.839 181.688 129.125 181.099C130.635 178.052 132.245 175.115 134.094 172.135C134.375 171.755 134.568 171.333 134.672 170.87C134.776 170.406 134.781 169.938 134.693 169.474C134.604 169.005 134.427 168.578 134.156 168.188C133.885 167.797 133.552 167.474 133.151 167.219C132.745 166.969 132.307 166.807 131.839 166.734C131.37 166.667 130.906 166.693 130.443 166.813C129.984 166.938 129.568 167.146 129.198 167.443C128.823 167.734 128.526 168.094 128.302 168.51C126.406 171.615 124.682 174.802 123.13 178.089C122.922 178.49 122.802 178.912 122.766 179.359C122.724 179.807 122.771 180.245 122.906 180.677C123.042 181.104 123.255 181.49 123.542 181.839C123.828 182.182 124.172 182.458 124.568 182.672Z" fill="#2969BD"/>
<path d="M291.026 267.87C287.99 271.719 284.662 275.313 281.058 278.641C280.724 278.953 280.459 279.313 280.271 279.729C280.084 280.146 279.98 280.578 279.964 281.037C279.948 281.49 280.021 281.932 280.178 282.359C280.339 282.787 280.573 283.167 280.886 283.5C281.198 283.833 281.558 284.094 281.974 284.281C282.391 284.469 282.829 284.573 283.282 284.589C283.74 284.604 284.183 284.531 284.61 284.375C285.037 284.214 285.417 283.979 285.75 283.667C289.589 280.078 293.141 276.224 296.407 272.109C296.688 271.755 296.891 271.354 297.016 270.922C297.141 270.484 297.172 270.042 297.12 269.589C297.068 269.141 296.933 268.714 296.709 268.318C296.49 267.922 296.198 267.583 295.844 267.302C295.485 267.021 295.089 266.818 294.651 266.698C294.214 266.573 293.771 266.537 293.318 266.589C292.865 266.646 292.443 266.781 292.047 267C291.646 267.224 291.308 267.511 291.026 267.87Z" fill="#2969BD"/>
<path d="M309.151 193.516C309.235 193.901 309.386 194.266 309.594 194.604C309.808 194.943 310.068 195.234 310.381 195.479C310.693 195.724 311.037 195.911 311.417 196.042C311.792 196.167 312.183 196.224 312.578 196.213C312.818 196.25 313.058 196.25 313.297 196.213C313.73 196.115 314.131 195.932 314.49 195.677C314.855 195.422 315.157 195.104 315.396 194.734C315.636 194.359 315.797 193.953 315.875 193.521C315.959 193.083 315.959 192.651 315.87 192.213C314.417 185.266 312.271 178.542 309.427 172.036C309.224 171.656 308.959 171.328 308.636 171.047C308.308 170.766 307.943 170.557 307.537 170.417C307.131 170.276 306.714 170.208 306.282 170.224C305.855 170.24 305.443 170.333 305.047 170.505C304.651 170.672 304.302 170.911 303.995 171.213C303.688 171.516 303.448 171.859 303.276 172.25C303.099 172.646 303 173.057 302.98 173.484C302.959 173.911 303.021 174.328 303.157 174.734C305.792 180.792 307.792 187.052 309.151 193.516Z" fill="#2969BD"/>
<path d="M314.156 202.917C313.703 202.943 313.271 203.057 312.859 203.255C312.448 203.453 312.094 203.724 311.792 204.063C311.489 204.406 311.266 204.792 311.114 205.219C310.969 205.651 310.906 206.089 310.932 206.542C310.932 208.255 310.932 209.964 310.932 211.672C310.937 216.552 310.526 221.401 309.703 226.208C309.62 226.662 309.63 227.104 309.734 227.552C309.833 227.995 310.016 228.406 310.276 228.776C310.542 229.151 310.864 229.458 311.255 229.703C311.641 229.943 312.062 230.104 312.51 230.177H313.094C313.5 230.182 313.896 230.12 314.281 229.984C314.667 229.849 315.016 229.651 315.333 229.391C315.646 229.13 315.906 228.823 316.109 228.469C316.312 228.12 316.453 227.74 316.521 227.339C317.385 222.141 317.818 216.906 317.823 211.641C317.823 209.792 317.823 207.948 317.823 206.099C317.792 205.646 317.677 205.214 317.474 204.807C317.271 204.401 316.995 204.047 316.651 203.75C316.307 203.448 315.917 203.229 315.484 203.083C315.052 202.943 314.609 202.885 314.156 202.917Z" fill="#2969BD"/>
<path d="M311.005 236.677C310.572 236.536 310.13 236.484 309.677 236.516C309.224 236.552 308.796 236.672 308.39 236.88C307.984 237.083 307.635 237.359 307.338 237.703C307.046 238.047 306.828 238.432 306.687 238.865C304.619 245.156 301.906 251.151 298.531 256.854C298.307 257.245 298.161 257.661 298.099 258.104C298.036 258.552 298.062 258.99 298.177 259.427C298.286 259.859 298.479 260.26 298.744 260.62C299.015 260.979 299.343 261.276 299.729 261.505C300.27 261.823 300.849 261.984 301.479 261.984C302.083 261.984 302.645 261.833 303.171 261.536C303.697 261.24 304.114 260.828 304.427 260.307C308.041 254.182 310.968 247.74 313.197 240.984C313.338 240.552 313.39 240.115 313.354 239.661C313.317 239.208 313.197 238.781 312.994 238.38C312.786 237.974 312.51 237.625 312.166 237.328C311.822 237.036 311.437 236.818 311.005 236.677Z" fill="#2969BD"/>
<path d="M301.823 164.031C302.214 163.802 302.547 163.51 302.823 163.146C303.099 162.786 303.297 162.385 303.412 161.943C303.526 161.505 303.552 161.062 303.495 160.609C303.433 160.161 303.287 159.74 303.052 159.344C299.495 153.229 295.36 147.531 290.651 142.245C290.349 141.906 289.99 141.641 289.584 141.443C289.177 141.25 288.745 141.135 288.292 141.109C287.839 141.089 287.396 141.146 286.969 141.297C286.542 141.448 286.156 141.672 285.818 141.974C285.474 142.276 285.203 142.63 285.005 143.042C284.802 143.453 284.693 143.885 284.667 144.344C284.641 144.797 284.703 145.245 284.854 145.672C285.011 146.104 285.24 146.49 285.547 146.828C289.948 151.797 293.813 157.156 297.125 162.901C297.433 163.432 297.854 163.854 298.386 164.156C298.917 164.464 299.495 164.615 300.11 164.615C300.729 164.573 301.302 164.38 301.823 164.031Z" fill="#2969BD"/>
<path d="M252.89 226.755C253.666 226.755 254.364 226.516 254.979 226.042C258.369 223.391 261.463 220.437 264.265 217.182C264.515 216.833 264.697 216.453 264.802 216.036C264.911 215.625 264.937 215.203 264.89 214.781C264.838 214.354 264.713 213.953 264.51 213.578C264.307 213.198 264.046 212.87 263.723 212.588C263.395 212.312 263.031 212.099 262.63 211.958C262.223 211.812 261.807 211.75 261.38 211.766C260.947 211.776 260.536 211.87 260.145 212.036C259.75 212.203 259.401 212.437 259.093 212.734C256.578 215.651 253.802 218.297 250.765 220.672C250.187 221.12 249.791 221.693 249.583 222.396C249.375 223.099 249.39 223.797 249.63 224.489C249.869 225.182 250.291 225.739 250.89 226.167C251.489 226.588 252.156 226.797 252.89 226.792V226.755Z" fill="#2969BD"/>
<path d="M276.5 180.964C276.052 180.891 275.61 180.911 275.167 181.016C274.73 181.125 274.323 181.313 273.959 181.578C273.594 181.844 273.292 182.167 273.058 182.552C272.818 182.938 272.667 183.354 272.594 183.802C272.052 187.302 271.183 190.724 269.99 194.063C269.063 196.823 267.922 199.49 266.563 202.063C266.344 202.464 266.214 202.891 266.167 203.344C266.12 203.802 266.162 204.245 266.292 204.682C266.427 205.12 266.636 205.516 266.927 205.865C267.219 206.219 267.563 206.5 267.969 206.714C268.37 206.932 268.797 207.063 269.25 207.109C269.709 207.156 270.151 207.115 270.589 206.984C271.026 206.854 271.422 206.641 271.776 206.354C272.131 206.063 272.412 205.714 272.625 205.313C274.177 202.427 275.5 199.438 276.605 196.354C277.917 192.609 278.886 188.776 279.516 184.859C279.584 184.401 279.558 183.948 279.438 183.495C279.323 183.047 279.12 182.641 278.839 182.271C278.552 181.901 278.209 181.604 277.802 181.38C277.396 181.151 276.964 181.01 276.5 180.964Z" fill="#2969BD"/>
<path d="M270.813 147.75C270.386 147.917 270.016 148.161 269.688 148.479C269.36 148.792 269.11 149.161 268.927 149.578C268.75 149.995 268.656 150.432 268.651 150.885C268.641 151.339 268.724 151.776 268.891 152.198C271.313 158.276 272.724 164.583 273.141 171.109C273.172 171.542 273.281 171.953 273.469 172.349C273.656 172.74 273.906 173.083 274.224 173.375C274.542 173.672 274.906 173.896 275.308 174.057C275.714 174.214 276.136 174.292 276.568 174.292H276.808C277.261 174.26 277.688 174.146 278.094 173.948C278.5 173.745 278.849 173.474 279.151 173.135C279.448 172.797 279.672 172.411 279.818 171.984C279.964 171.557 280.021 171.12 279.995 170.667C279.526 163.417 277.948 156.417 275.266 149.667C275.099 149.245 274.854 148.87 274.537 148.547C274.219 148.219 273.854 147.969 273.438 147.786C273.016 147.609 272.584 147.516 272.125 147.51C271.672 147.5 271.235 147.583 270.813 147.75Z" fill="#2969BD"/>
<path d="M209.339 174.26C209.886 174.26 210.406 174.135 210.896 173.891C211.386 173.641 211.792 173.297 212.115 172.854C215.953 167.672 220.375 163.047 225.375 158.969L225.719 158.698C226.068 158.406 226.354 158.063 226.568 157.661C226.781 157.26 226.912 156.839 226.958 156.385C227 155.932 226.958 155.49 226.828 155.052C226.693 154.62 226.484 154.229 226.198 153.875C225.906 153.526 225.563 153.24 225.162 153.026C224.761 152.813 224.333 152.682 223.88 152.635C223.427 152.594 222.984 152.635 222.547 152.766C222.115 152.896 221.719 153.109 221.365 153.396L221.057 153.667C215.615 158.115 210.792 163.151 206.599 168.786C206.328 169.151 206.136 169.552 206.026 169.995C205.917 170.432 205.896 170.88 205.964 171.328C206.031 171.776 206.182 172.198 206.417 172.589C206.651 172.974 206.953 173.302 207.318 173.573C207.917 174.021 208.589 174.25 209.339 174.26Z" fill="#2969BD"/>
<path d="M234.901 151.823C235.485 151.823 236.032 151.688 236.547 151.412C242.308 148.193 248.386 145.75 254.776 144.094C255.214 143.979 255.62 143.787 255.979 143.51C256.344 143.24 256.641 142.906 256.875 142.516C257.104 142.125 257.256 141.703 257.318 141.255C257.381 140.802 257.354 140.359 257.24 139.922C257.131 139.479 256.933 139.078 256.662 138.714C256.386 138.354 256.058 138.057 255.662 137.823C255.271 137.594 254.849 137.448 254.401 137.38C253.948 137.318 253.5 137.344 253.063 137.458C246.11 139.271 239.495 141.927 233.224 145.427C232.896 145.609 232.604 145.844 232.354 146.125C232.099 146.412 231.901 146.724 231.756 147.073C231.61 147.417 231.521 147.781 231.495 148.156C231.469 148.531 231.5 148.901 231.599 149.271C231.693 149.635 231.844 149.974 232.052 150.287C232.261 150.604 232.516 150.875 232.813 151.104C233.115 151.339 233.443 151.516 233.797 151.635C234.157 151.76 234.521 151.823 234.901 151.823Z" fill="#2969BD"/>
<path d="M67.2343 206.303L67.1259 165.914L74.2674 165.895L74.3758 206.285L67.2343 206.303Z" fill="#2969BD"/>
<path d="M108.68 198.61C108.362 198.931 107.985 199.189 107.571 199.37C106.993 199.621 106.359 199.714 105.734 199.64C105.108 199.566 104.513 199.328 104.009 198.95L83.7662 183.851L88.0942 178.082L103.327 189.457L104.878 174.68L85.8373 155.739C85.5021 155.41 85.2353 155.017 85.0521 154.585C84.869 154.152 84.7731 153.687 84.7699 153.217L84.7147 132.661C84.7178 128.44 83.8837 124.26 82.2607 120.363C80.6378 116.466 78.2582 112.929 75.2597 109.958L70.55 105.273L65.8656 109.983C62.8831 112.97 60.5225 116.519 58.9205 120.424C57.3185 124.329 56.5068 128.514 56.5325 132.735L56.5877 153.291C56.587 153.761 56.4936 154.226 56.3128 154.66C56.1319 155.094 55.8672 155.487 55.5338 155.819L36.5946 174.859L38.2758 189.678L53.4474 178.224L57.8064 183.97L37.6447 199.175C37.1428 199.555 36.5492 199.796 35.9241 199.873C35.2989 199.95 34.6646 199.861 34.0852 199.613C33.501 199.365 32.9934 198.966 32.6148 198.456C32.2361 197.947 32.0001 197.346 31.931 196.715L29.3447 173.994C29.2736 173.459 29.3246 172.915 29.4938 172.403C29.663 171.891 29.946 171.424 30.3216 171.037L49.4371 151.82L49.3607 132.754C49.3324 127.592 50.3291 122.476 52.293 117.702C54.2569 112.929 57.149 108.593 60.8015 104.945L65.4859 100.236C66.8218 98.893 68.6365 98.1357 70.5309 98.1308C72.4252 98.1258 74.244 98.8736 75.5871 100.21L80.2967 104.894C83.9687 108.522 86.884 112.843 88.8735 117.606C90.863 122.37 91.8872 127.48 91.8865 132.642L91.9124 151.708L111.131 170.825C111.509 171.205 111.797 171.665 111.974 172.172C112.15 172.679 112.21 173.219 112.149 173.752L109.684 196.486C109.599 197.287 109.245 198.035 108.68 198.61Z" fill="#2969BD"/>
</svg>
